<svg width="49" height="30" viewBox="0 0 49 30" fill="none" xmlns="http://www.w3.org/2000/svg">
<path d="M27.9181 20.7016C28.1261 20.8502 28.3414 21.0118 28.5645 21.162C29.0051 21.4854 29.5201 21.6926 30.062 21.7642C30.6038 21.8359 31.155 21.7697 31.6646 21.5719C32.2287 21.3391 32.7769 21.0693 33.3055 20.7641C33.513 20.6526 33.553 20.6871 33.6329 20.9009C33.7839 21.4094 34.0021 21.8955 34.2817 22.3463C34.618 22.7591 35.0642 23.0684 35.5688 23.2385C36.0734 23.4085 36.6158 23.4323 37.1333 23.3071C37.5418 23.2605 37.9417 23.1389 38.3748 23.0452C38.0715 23.5773 37.6274 24.0155 37.0912 24.3116C36.6608 24.6019 36.1337 24.7117 35.6232 24.6175C34.5898 24.4073 33.5554 24.1765 32.5097 24.058C30.6083 23.8425 28.7011 23.6474 26.791 23.5446C24.0003 23.4041 21.203 23.4735 18.4227 23.7523C16.4659 23.9413 14.5307 24.2462 12.6024 24.6168C12.3358 24.6556 12.064 24.6361 11.8057 24.5594C11.2002 24.362 10.6632 23.9969 10.2569 23.5065C10.1536 23.3824 10.0608 23.2499 9.97951 23.1103C10.6148 23.19 11.2349 23.3171 11.858 23.3334C12.241 23.3581 12.6247 23.2968 12.981 23.154C13.3373 23.0113 13.6571 22.7907 13.9171 22.5083C14.305 22.0552 14.5685 21.5092 14.682 20.9236C14.7473 20.6498 14.8426 20.677 15.0523 20.7871C15.5911 21.094 16.1505 21.3631 16.7265 21.5926C17.3739 21.8023 18.0675 21.824 18.7267 21.6551C19.386 21.4862 19.9837 21.1337 20.4506 20.6385L19.9186 20.2629C19.8828 20.2823 19.8487 20.3046 19.8166 20.3295C19.4612 20.6752 19.0205 20.9204 18.5394 21.04C18.0583 21.1596 17.5541 21.1493 17.0783 21.0103C16.6491 20.8753 16.2108 20.7716 15.7667 20.7C15.5609 20.689 15.3617 20.6243 15.1887 20.5123C15.0157 20.4003 14.8751 20.245 14.7808 20.0619C14.6385 19.8566 14.4804 19.6628 14.308 19.4821C14.1475 19.996 14.2118 20.4315 14.0667 20.869C13.9435 21.2521 13.7201 21.5952 13.4197 21.8628C13.1192 22.1304 12.7527 22.3128 12.358 22.391C11.4772 22.5986 10.5533 22.5233 9.71776 22.1758C9.04833 21.9774 8.45168 21.5872 8.00149 21.0535C7.85056 20.8828 7.74447 20.6773 7.69278 20.4554C7.6411 20.2335 7.64544 20.0023 7.70543 19.7825C7.7294 19.6468 7.79749 19.5228 7.89913 19.4297C8.00077 19.3367 8.13028 19.2798 8.26757 19.2679C8.58009 19.2442 8.62649 19.5006 8.735 19.6981C8.8135 19.841 8.907 19.9757 8.99376 20.1141L9.04276 20.0362C9.15509 20.0362 9.26776 20.0302 9.37968 20.0374C9.71442 20.0741 10.0509 20.0931 10.3876 20.0944C10.451 20.0712 10.5072 20.0318 10.5506 19.9802C10.5941 19.9286 10.6234 19.8666 10.6355 19.8002C10.5959 19.6484 10.5072 19.5139 10.3832 19.4178C10.2883 19.3594 10.179 19.3286 10.0676 19.3287C9.83454 19.3353 9.60612 19.2629 9.41941 19.1233C9.2327 18.9837 9.09867 18.7851 9.03909 18.5597L8.78468 18.6502C8.86718 18.4629 9.01094 18.3316 9.09312 18.1691C9.24452 17.8708 9.50718 17.6439 9.82441 17.5375C9.8758 17.5115 9.9204 17.4738 9.95465 17.4275C9.9889 17.3812 10.0118 17.3276 10.0217 17.2708C10.0404 16.7298 10.0308 16.1877 10.0308 15.6353C9.43178 15.6353 8.89125 15.6126 8.35378 15.6433C8.18486 15.6429 8.0205 15.6981 7.88615 15.8005C7.7518 15.9029 7.65496 16.0467 7.61063 16.2097C7.54111 16.4446 7.48119 16.6824 7.41696 16.9189C7.35784 15.8456 6.37038 15.7544 5.73755 15.281C5.69033 15.4672 5.65298 15.6335 5.6057 15.7971C5.54243 15.9845 5.53163 16.1857 5.57446 16.3788C5.61729 16.5719 5.71212 16.7497 5.8487 16.8928C5.90819 16.9611 5.96091 17.035 6.0061 17.1135C6.12089 17.3046 6.15523 17.5335 6.10159 17.7499C6.04796 17.9663 5.91073 18.1526 5.71997 18.268C5.62762 18.315 5.52626 18.3416 5.42274 18.3461C5.31922 18.3505 5.21595 18.3327 5.11989 18.2939C5.02384 18.255 4.93725 18.196 4.86596 18.1208C4.79467 18.0456 4.74034 17.956 4.70665 17.858C4.52787 17.5245 4.44868 17.1467 4.47852 16.7694C4.50835 16.3922 4.64595 16.0315 4.87493 15.7303C4.13051 15.5992 3.74393 15.9649 3.44043 17.1011C3.23372 16.8219 2.94589 16.6132 2.61621 16.5036C2.28654 16.394 1.93107 16.3888 1.59832 16.4887C0.926419 16.677 0.353569 17.1182 0 17.7198C0.49724 17.7198 0.94147 17.6898 1.38026 17.7259C2.33355 17.767 3.24767 18.1168 3.98483 18.7226C4.68853 19.3328 5.36142 19.9786 6.04783 20.6088C7.45267 22.0707 8.95311 23.4377 10.5392 24.7007C10.79 24.8762 10.7611 25.026 10.4892 25.2055C10.347 25.2729 10.2338 25.3892 10.1702 25.5331C10.1067 25.6771 10.097 25.8391 10.143 25.9896C10.2177 26.1942 10.5435 26.3063 10.8898 26.2261C11.6632 26.0469 12.4394 25.8766 13.2053 25.6691C16.7795 24.9149 20.4221 24.5329 24.075 24.5292C26.9492 24.4303 29.8257 24.6407 32.6549 25.1566C33.9786 25.4026 35.2857 25.7375 36.6019 26.0252C36.9812 26.1186 37.3663 26.187 37.7545 26.23C38.0582 26.2555 38.2037 26.0559 38.2019 25.7519C38.1988 25.6408 38.1654 25.5325 38.1052 25.439C38.0449 25.3455 37.9602 25.2704 37.8602 25.2216C37.5184 25.0053 37.5206 24.9126 37.8381 24.6582C38.363 24.2373 38.9059 23.8348 39.3981 23.3781C40.3109 22.5311 41.1878 21.6455 42.0887 20.7855C42.7777 20.1278 43.4708 19.4733 44.1829 18.841C44.4561 18.6046 44.7569 18.4021 45.0788 18.2379C46.001 17.7923 47.0297 17.6139 48.0481 17.723C48.1289 17.7283 48.2102 17.7237 48.3435 17.7237C47.9809 17.1477 47.4293 16.7157 46.7831 16.5018C46.4363 16.3918 46.0639 16.392 45.7172 16.5025C45.3704 16.6129 45.0665 16.8281 44.8471 17.1184C44.6349 16.0043 44.1803 15.5754 43.4668 15.722C43.556 15.907 43.6605 16.093 43.7377 16.2898C43.8847 16.7564 43.8611 17.26 43.6711 17.7108C43.6516 17.8365 43.6005 17.9551 43.5224 18.0554C43.4444 18.1558 43.3421 18.2347 43.2251 18.2845C43.1082 18.3344 42.9805 18.3536 42.854 18.3404C42.7275 18.3272 42.6065 18.282 42.5024 18.2091C42.4111 18.1448 42.3345 18.0618 42.2779 17.9656C42.2212 17.8694 42.1856 17.7622 42.1736 17.6512C42.1616 17.5401 42.1735 17.4278 42.2083 17.3217C42.2431 17.2156 42.3002 17.1182 42.3757 17.0359C42.5724 16.7963 42.6971 16.5057 42.7351 16.198C42.7731 15.8903 42.7229 15.5781 42.5904 15.2978C42.2951 15.458 42.0198 15.6178 41.7353 15.7591C41.5516 15.8307 41.3899 15.9492 41.2662 16.1026C41.1424 16.2561 41.061 16.4392 41.0299 16.6339C41.0047 16.7417 40.9694 16.8469 40.9247 16.9481C40.8757 16.8509 40.8441 16.7458 40.8311 16.6377C40.6711 15.8044 40.3537 15.5811 39.5073 15.6602C39.2162 15.672 38.9245 15.6653 38.6342 15.6402C38.5296 15.6366 38.4253 15.626 38.2859 15.6162C38.5104 16.3308 38.049 17.0459 38.4282 17.7214C38.5544 17.6006 38.7126 17.5186 38.884 17.4852C39.0554 17.4517 39.2328 17.4681 39.3952 17.5325L38.9332 18.1068C39.1894 18.2305 39.4643 18.2985 39.5159 18.6397C39.3665 18.5804 39.2572 18.5277 39.1425 18.4932C39.0067 18.4352 38.8551 18.4256 38.7131 18.4661C38.5711 18.5066 38.4473 18.5946 38.3625 18.7155C38.3421 18.7498 38.33 18.7883 38.3272 18.828C38.3244 18.8678 38.3309 18.9076 38.3463 18.9444C38.6346 19.3411 38.9373 19.7274 39.2763 20.1699C39.3972 20.005 39.5087 19.8335 39.6103 19.6562C39.7011 19.4741 39.7567 19.2691 40.0113 19.2678C40.1333 19.2702 40.2517 19.3097 40.3507 19.381C40.4497 19.4523 40.5247 19.5521 40.5657 19.667C40.6713 19.9202 40.6947 20.2002 40.6326 20.4674C40.5705 20.7346 40.426 20.9756 40.2196 21.1562C39.8796 21.4802 39.4939 21.7524 39.0748 21.9642C38.1168 22.487 36.9992 22.6369 35.9372 22.3851C35.551 22.3275 35.1901 22.1583 34.8987 21.8984C34.6073 21.6384 34.3982 21.299 34.2971 20.9218C34.1958 20.4837 34.1046 20.0432 33.9869 19.5033C33.8439 19.6443 33.7191 19.8026 33.6153 19.9745C33.5446 20.1851 33.4079 20.3672 33.2254 20.4939C33.0429 20.6205 32.8245 20.6849 32.6025 20.6775C32.3242 20.6955 32.05 20.7535 31.7883 20.8497C31.3393 21.0617 30.8439 21.1566 30.3484 21.1255C29.8528 21.0944 29.3732 20.9383 28.9543 20.6718C28.5649 20.3979 28.2862 20.2414 27.9181 20.7016ZM13.916 17.8531C14.0897 18.1072 14.3175 18.3197 14.583 18.4755C14.8484 18.6313 15.145 18.7264 15.4516 18.7542C15.6725 18.75 15.8837 18.6627 16.043 18.5096C16.1833 18.354 16.2267 17.8882 16.2989 17.6915C16.3983 17.4131 16.5627 17.1625 16.7783 16.9604C16.994 16.7582 17.2547 16.6104 17.5389 16.5291C17.7451 16.8297 17.8642 17.1813 17.8833 17.5453C17.9023 17.9093 17.8204 18.2714 17.6467 18.5918C17.4731 18.9122 17.2143 19.1785 16.8989 19.3611C16.5835 19.5438 16.2238 19.6359 15.8595 19.6272C15.3653 19.6058 14.8835 19.4665 14.4541 19.2209C14.0248 18.9753 13.6605 18.6306 13.3916 18.2154C12.433 16.7872 12.9083 14.5666 13.818 13.2238C14.0655 12.8136 14.4017 12.4641 14.8019 12.201C15.2022 11.9378 15.6564 11.7677 16.131 11.7032C16.8243 11.6192 17.5272 11.668 18.2023 11.8468C18.3333 11.8812 18.4677 11.903 18.638 11.9383C18.6238 11.8984 18.6052 11.8601 18.5827 11.8241C18.5459 11.7914 18.5042 11.7643 18.4663 11.7328C18.1829 11.5225 17.9462 11.2558 17.7711 10.9494C17.596 10.643 17.4863 10.3036 17.4491 9.95264C17.3965 9.58582 17.4731 9.21211 17.6659 8.89562C17.8587 8.57913 18.1555 8.33956 18.5056 8.218C18.6901 8.16993 18.884 8.17129 19.0678 8.22194C19.2516 8.2726 19.4188 8.37076 19.5526 8.50656C19.6684 8.6013 19.7557 8.72614 19.8051 8.86732C19.8544 9.00851 19.8639 9.16058 19.8323 9.30678C19.6406 9.20482 19.431 9.14102 19.2149 9.11892C18.9432 9.15225 18.888 9.43292 18.8605 9.67502C18.7968 9.96356 18.8087 10.2637 18.8951 10.5462C18.9815 10.8288 19.1394 11.0843 19.3536 11.2878C19.8497 11.6938 20.3713 12.0675 20.9154 12.4065C21.7179 12.8529 22.3805 13.5138 22.8291 14.3152L22.8307 14.3186C22.9296 14.5222 23.0769 14.6985 23.2596 14.8321C23.7153 15.1611 24.6346 16.126 24.2246 17.0359C23.6256 18.365 24.4559 19.5445 24.2246 19.7759C24.1924 19.8095 24.1537 19.8362 24.1109 19.8545C24.0681 19.8727 24.022 19.8822 23.9755 19.8822C23.929 19.8822 23.8829 19.8727 23.8401 19.8545C23.7973 19.8362 23.7586 19.8095 23.7264 19.7759C23.5545 19.015 23.4865 18.469 23.295 17.7672C23.1829 17.2959 23.0109 16.8409 22.7833 16.4132C22.5014 15.8861 22.0489 15.4704 21.4999 15.2341C20.9509 14.9979 20.3379 14.955 19.7613 15.1127C19.4421 15.1898 19.1133 15.2192 18.7854 15.2C18.3833 15.1793 17.9995 15.0249 17.695 14.7614C17.9521 14.4169 18.2968 14.1477 18.6933 13.9817C19.0897 13.8158 19.5234 13.7592 19.9492 13.8178C20.7259 14.0063 21.4375 14.4002 22.0096 14.9583C22.245 15.1736 22.503 15.3642 22.7483 15.5641C22.574 15.2758 22.4102 14.9517 22.1979 14.6633C21.831 14.1479 21.3562 13.7185 20.8065 13.4052C20.2569 13.0919 19.6456 12.9021 19.0151 12.849C18.1652 12.7738 17.3177 13.0173 16.6374 13.5321C16.4212 13.6895 16.1835 13.815 15.9317 13.9048C15.8576 13.9195 15.7811 13.917 15.7082 13.8974C15.6352 13.8779 15.5678 13.8418 15.511 13.792C15.4763 13.7326 15.4568 13.6655 15.4542 13.5967C15.4516 13.5279 15.4661 13.4595 15.4963 13.3976C15.6631 13.1441 15.8462 12.9017 16.0445 12.672C16.1053 12.6067 16.17 12.5451 16.2382 12.4876C16.1712 12.476 16.1031 12.4721 16.0351 12.4757C15.3732 12.6404 14.7898 13.0318 14.3864 13.5819C13.8593 14.2915 13.5902 15.1598 13.6238 16.0432C13.586 16.785 13.7895 17.5191 14.2038 18.1356C14.4133 18.4199 14.7592 18.7794 14.261 18.5304L13.916 17.8531ZM33.8914 18.5304C33.3932 18.7794 33.7391 18.4199 33.9486 18.1356C34.3629 17.5191 34.5664 16.785 34.5286 16.0432C34.5622 15.1598 34.2931 14.2915 33.766 13.5819C33.3626 13.0318 32.7792 12.6404 32.1172 12.4757C32.0493 12.4721 31.9812 12.476 31.9142 12.4876C31.9824 12.5451 32.0471 12.6067 32.1079 12.672C32.3062 12.9017 32.4893 13.1441 32.6561 13.3976C32.6863 13.4595 32.7008 13.5279 32.6982 13.5967C32.6956 13.6655 32.6761 13.7326 32.6414 13.792C32.5846 13.8418 32.5172 13.8779 32.4442 13.8974C32.3713 13.917 32.2948 13.9195 32.2207 13.9048C31.9688 13.815 31.7312 13.6895 31.515 13.5321C30.8347 13.0173 29.9872 12.7738 29.1373 12.849C28.5068 12.9021 27.8955 13.0919 27.3459 13.4052C26.7963 13.7185 26.3215 14.1478 25.9546 14.6633C25.7423 14.9517 25.5784 15.2758 25.4041 15.5641C25.6494 15.3642 25.9075 15.1736 26.1429 14.9583C26.7149 14.4002 27.4266 14.0063 28.2032 13.8178C28.629 13.7592 29.0627 13.8158 29.4592 13.9817C29.8557 14.1477 30.2004 14.4169 30.4574 14.7614C30.1529 15.0249 29.7692 15.1793 29.367 15.2C29.0392 15.2192 28.7103 15.1898 28.3911 15.1127C27.8146 14.955 27.2016 14.9978 26.6525 15.2341C26.1035 15.4704 25.651 15.8861 25.3691 16.4132C25.1415 16.8409 24.9696 17.2959 24.8574 17.7672C24.6659 18.469 24.5979 19.015 24.426 19.7758C24.3938 19.8094 24.3552 19.8362 24.3124 19.8545C24.2695 19.8727 24.2235 19.8821 24.1769 19.8821C24.1304 19.8821 24.0843 19.8727 24.0415 19.8545C23.9987 19.8362 23.9601 19.8094 23.9279 19.7758C23.6965 19.5445 24.5269 18.365 23.9279 17.0358C23.5178 16.1259 24.4371 15.1611 24.8929 14.8321C25.0756 14.6985 25.2228 14.5222 25.3217 14.3186L25.3234 14.3152C25.7719 13.5138 26.4345 12.8529 27.237 12.4064C27.781 12.0674 28.3027 11.6938 28.7987 11.2878C29.0129 11.0842 29.1709 10.8288 29.2573 10.5462C29.3437 10.2636 29.3556 9.96353 29.2918 9.675C29.2643 9.4329 29.2091 9.15223 28.9374 9.1189C28.7214 9.141 28.5117 9.2048 28.32 9.30676C28.2885 9.16056 28.2979 9.00849 28.3473 8.8673C28.3966 8.72612 28.484 8.60128 28.5997 8.50654C28.7335 8.37074 28.9007 8.27258 29.0845 8.22192C29.2683 8.17127 29.4622 8.16991 29.6467 8.21798C29.9968 8.33954 30.2937 8.57911 30.4864 8.89561C30.6792 9.21211 30.7559 9.58582 30.7033 9.95265C30.666 10.3036 30.5564 10.643 30.3813 10.9494C30.2062 11.2558 29.9694 11.5225 29.686 11.7328C29.6481 11.7643 29.6065 11.7914 29.5697 11.8241C29.5471 11.8601 29.5286 11.8984 29.5143 11.9383C29.6847 11.903 29.819 11.8812 29.9501 11.8468C30.6251 11.668 31.328 11.6192 32.0213 11.7032C32.496 11.7677 32.9501 11.9378 33.3504 12.201C33.7507 12.4641 34.0869 12.8136 34.3343 13.2238C35.244 14.5666 35.7193 16.7872 34.7608 18.2154C34.4919 18.6306 34.1275 18.9753 33.6982 19.2209C33.2689 19.4665 32.787 19.6058 32.2929 19.6272C31.9285 19.6359 31.5688 19.5438 31.2534 19.3612C30.9381 19.1785 30.6793 18.9122 30.5056 18.5918C30.3319 18.2714 30.25 17.9093 30.2691 17.5453C30.2881 17.1813 30.4073 16.8297 30.6134 16.5291C30.8976 16.6104 31.1583 16.7582 31.374 16.9604C31.5896 17.1625 31.754 17.4131 31.8535 17.6915C31.9257 17.8882 31.969 18.354 32.1093 18.5096C32.2686 18.6627 32.4798 18.75 32.7007 18.7542C33.0073 18.7264 33.3039 18.6313 33.5694 18.4755C33.8348 18.3197 34.0626 18.1072 34.2363 17.8531L33.8914 18.5304ZM26.0137 8.16148C26.0669 7.82801 26.0095 7.74565 25.7272 7.7282C25.6117 7.72364 25.4968 7.74871 25.3937 7.80102C25.2905 7.85333 25.2024 7.93116 25.1378 8.02709C25.0732 8.12303 25.0342 8.23389 25.0245 8.34916C25.0148 8.46442 25.0347 8.58024 25.0824 8.68563C25.154 8.8358 25.2591 8.96756 25.3895 9.07082C25.52 9.17407 25.6724 9.24608 25.835 9.28132C25.9976 9.31656 26.1661 9.31409 26.3276 9.2741C26.4891 9.23411 26.6393 9.15767 26.7666 9.05063C26.9454 8.89802 27.0911 8.71046 27.1947 8.49949C27.2983 8.28851 27.3577 8.05857 27.3692 7.8238C27.3807 7.58904 27.344 7.3544 27.2615 7.13431C27.179 6.91423 27.0523 6.71334 26.8893 6.544C26.4389 6.032 25.9523 5.552 25.49 5.05008C25.4046 4.93878 25.3299 4.81964 25.267 4.69425L25.3364 4.62454C25.4875 4.80494 25.6758 4.95053 25.8884 5.05133C26.1011 5.15213 26.333 5.20576 26.5683 5.20854C26.8135 5.21698 27.0568 5.16143 27.2741 5.04733C27.4914 4.93324 27.6752 4.76455 27.8075 4.55785C27.1129 4.68031 26.3976 4.53696 25.8037 4.15626C25.5377 3.9421 25.334 3.66054 25.2138 3.34091C25.0936 3.02127 25.0613 2.67525 25.1202 2.33888C25.0887 2.33952 25.0573 2.34451 25.0271 2.35371C25.0029 2.37146 24.9805 2.39156 24.9602 2.41371C24.7119 2.68527 24.5209 3.00413 24.3986 3.35121C24.2764 3.69829 24.2254 4.06647 24.2487 4.43371C24.2104 4.72852 24.2382 5.02818 24.3303 5.31086C24.4223 5.59355 24.5762 5.85215 24.7808 6.06785C24.8568 6.12171 24.9396 6.16512 25.0272 6.19692C25.0568 6.09748 25.0749 5.99496 25.0812 5.89138C25.0725 5.71226 25.037 5.53445 25.0127 5.35608L25.1007 5.33293C25.4714 5.81593 25.8575 6.28807 26.2079 6.7854C26.3598 6.96103 26.4738 7.1661 26.5428 7.3878C26.6118 7.6095 26.6343 7.84305 26.6089 8.07384C26.5715 8.23585 26.4897 8.38421 26.3725 8.5022C26.2554 8.62018 26.1076 8.7031 25.9459 8.74161C25.747 8.76498 25.5752 8.69653 25.548 8.47244C25.5205 8.24617 25.6387 8.13256 25.872 8.1522C25.9197 8.15622 25.9676 8.15851 26.0137 8.16148ZM23.0225 4.59566C23.0139 4.91006 22.7984 5.07532 22.624 5.26251C22.2252 5.69051 21.7988 6.09496 21.4257 6.54391C21.1658 6.83161 21.011 7.19884 20.9866 7.58577C20.9622 7.97269 21.0695 8.35648 21.2911 8.67457C21.3875 8.83226 21.521 8.96392 21.68 9.05804C21.839 9.15216 22.0186 9.20587 22.2032 9.21445C22.3878 9.22304 22.5716 9.18624 22.7387 9.10729C22.9057 9.02834 23.0509 8.90963 23.1614 8.76157C23.269 8.61012 23.3138 8.4229 23.2864 8.23915C23.2591 8.05539 23.1617 7.88935 23.0146 7.77581C22.8284 7.69421 22.6215 7.67187 22.4221 7.71181C22.3524 7.72194 22.3123 7.93575 22.2452 8.08703C22.301 8.08139 22.3572 8.08186 22.4129 8.08845C22.5316 8.13417 22.6835 8.15666 22.7533 8.24373C22.7726 8.29509 22.778 8.35059 22.7691 8.40471C22.7602 8.45882 22.7372 8.50965 22.7026 8.55213C22.6449 8.59213 22.5793 8.61916 22.5103 8.63136C22.4412 8.64355 22.3703 8.64063 22.3025 8.62279C22.1058 8.51723 21.937 8.36659 21.8098 8.1832C21.7156 8.01055 21.6766 7.81315 21.698 7.61763C21.7194 7.4221 21.8003 7.23785 21.9297 7.08971C22.3223 6.4838 22.7711 5.91423 23.1989 5.33132C23.2096 5.31672 23.2482 5.3226 23.3092 5.31386C23.2801 5.52797 23.2433 5.72219 23.2321 5.91786C23.2428 6.00124 23.2679 6.08213 23.3062 6.15693C23.373 6.1258 23.4604 6.1117 23.5028 6.06042C23.6619 5.89863 23.7964 5.71433 23.9019 5.51342C24.1699 4.7659 24.16 3.94691 23.874 3.20608C23.7615 2.83156 23.5238 2.507 23.2007 2.28664C23.2706 2.62647 23.2456 2.97899 23.1284 3.30554C23.0112 3.6321 22.8064 3.92008 22.5364 4.13791C21.9569 4.5131 21.257 4.65526 20.5771 4.53586C20.6569 4.6885 20.7699 4.82128 20.9078 4.92444C21.0457 5.0276 21.2049 5.09851 21.3739 5.13192C21.6712 5.20831 21.9842 5.19845 22.2762 5.10348C22.5681 5.00852 22.827 4.83237 23.0225 4.59566V4.59566ZM22.0207 26.407C22.1054 26.4483 22.1536 26.4771 22.2053 26.4961C22.6877 26.6729 23.1823 26.8224 23.6497 27.0323C23.8017 27.1217 23.9748 27.169 24.1512 27.1695C24.3275 27.1699 24.5008 27.1234 24.6533 27.0347C24.8674 26.9323 25.0899 26.8485 25.3183 26.7842C25.6262 26.6689 25.9329 26.5507 26.2793 26.4188C26.2318 26.3742 26.1809 26.3333 26.127 26.2966C25.689 26.0681 25.2289 25.8744 24.8165 25.6069C24.6374 25.4542 24.4105 25.3692 24.1751 25.3665C23.9398 25.3638 23.711 25.4437 23.5284 25.5922C23.0435 25.8952 22.5399 26.1673 22.0207 26.407V26.407ZM25.1624 18.332C25.0078 19.052 25.1212 19.8037 25.4812 20.4462C25.7917 20.9708 26.2858 21.3617 26.8678 21.5432C27.4776 21.6846 27.6164 21.5358 27.4424 20.9581C27.3126 20.5273 27.2656 20.4921 26.8312 20.4547C26.7119 20.4537 26.594 20.428 26.4852 20.3792C26.3819 20.3202 26.224 20.1792 26.242 20.1209C26.3171 19.9669 26.4157 19.8254 26.5342 19.7016C26.1078 19.3067 25.4595 19.001 25.1624 18.332ZM21.8651 19.7015C21.9836 19.8254 22.0822 19.9668 22.1574 20.1209C22.1754 20.1791 22.0174 20.3202 21.9141 20.3792C21.8053 20.428 21.6875 20.4537 21.5681 20.4546C21.1337 20.492 21.0867 20.5273 20.9569 20.958C20.7829 21.5358 20.9218 21.6845 21.5316 21.5432C22.1135 21.3616 22.6076 20.9708 22.9181 20.4462C23.2782 19.8037 23.3915 19.052 23.237 18.332C22.9399 19.001 22.2916 19.3067 21.8651 19.7015ZM23.6971 20.3301C23.4626 20.6721 23.3334 21.0752 23.3253 21.4898C23.3173 21.9044 23.4309 22.3123 23.652 22.6631C24.024 23.1392 24.3812 23.1406 24.6989 22.6098C24.8824 22.3061 24.9875 21.9615 25.0046 21.6071C25.0216 21.2526 24.9502 20.8995 24.7968 20.5796C24.7688 20.5147 24.6639 20.4831 24.6169 20.451L24.2169 21.6785L24.0719 21.6659L23.6971 20.3301ZM20.1209 9.94422C20.1102 10.0236 20.1113 10.1041 20.1241 10.1831C20.191 10.4934 20.3195 10.7872 20.5019 11.047C20.6843 11.3068 20.9169 11.5275 21.186 11.6959C21.5141 11.9267 21.9181 12.0231 22.3151 11.9654C22.4624 11.938 22.5417 11.8958 22.4769 11.7066C22.3606 11.3786 22.1694 11.0822 21.9183 10.8411C21.6672 10.6001 21.3633 10.4211 21.0307 10.3184C20.7299 10.205 20.4357 10.0743 20.1209 9.94422ZM28.2029 9.93306C27.9214 10.0724 27.633 10.1969 27.3386 10.3062C27.0125 10.3983 26.7114 10.5629 26.4577 10.7877C26.2041 11.0124 26.0046 11.2916 25.8739 11.6042C25.7657 11.8541 25.8355 11.9552 26.1055 11.9798C26.4764 12.0033 26.844 11.8983 27.1464 11.6825C27.4518 11.4991 27.7077 11.2438 27.8918 10.9389C28.076 10.634 28.1828 10.2887 28.2029 9.93306H28.2029ZM23.6871 10.9984C23.6473 11.0296 23.6104 11.0643 23.5767 11.102C23.4117 11.3737 23.3317 11.6885 23.3472 12.006C23.3626 12.3235 23.4726 12.6291 23.6632 12.8836C23.7144 12.9705 23.7876 13.0425 23.8754 13.0921C23.9633 13.1418 24.0626 13.1675 24.1635 13.1667C24.2644 13.1658 24.3634 13.1384 24.4503 13.0873C24.5373 13.0361 24.6093 12.9629 24.659 12.8751C24.8072 12.6992 24.9103 12.4898 24.9593 12.2651C25.0084 12.0403 25.002 11.807 24.9406 11.5853C24.8611 11.3569 24.7627 11.1356 24.6462 10.9237L24.2152 12.0832L24.0955 12.0756L23.6871 10.9984ZM20.0146 26.2345C19.4719 26.8345 19.3902 27.044 19.605 27.4055C20.067 26.5243 20.3526 26.3847 21.2109 26.6494C21.1499 26.4534 21.0431 26.2748 20.8993 26.1284C20.7555 25.9819 20.5789 25.8719 20.3841 25.8073C20.2457 25.7261 20.0882 25.683 19.9277 25.6824C19.7672 25.6819 19.6094 25.7238 19.4704 25.8041L19.8493 26.028C19.3934 26.2086 18.9045 26.2913 18.4146 26.2707C18.3475 26.2643 18.2826 26.2436 18.2242 26.2098C18.1659 26.176 18.1156 26.13 18.0767 26.075C18.0378 26.02 18.0112 25.9572 17.9989 25.8909C17.9865 25.8246 17.9886 25.7565 18.005 25.6911C18.0213 25.6535 18.0464 25.6205 18.0783 25.5947C18.1101 25.5689 18.1477 25.5512 18.1879 25.5431C18.2414 25.5426 18.307 25.6424 18.3459 25.71C18.3672 25.7471 18.3443 25.8096 18.3414 25.8606L18.4371 25.8935C18.4764 25.8041 18.5623 25.7031 18.5437 25.6279C18.5173 25.5209 18.4155 25.3535 18.3435 25.3523C18.1637 25.3426 17.9854 25.3889 17.8332 25.485C17.7466 25.5546 17.6866 25.652 17.6635 25.7607C17.6403 25.8694 17.6554 25.9828 17.7062 26.0816C17.7559 26.1993 17.8289 26.3057 17.9208 26.3944C18.0127 26.4831 18.1216 26.5523 18.2409 26.5978C18.3603 26.6433 18.4876 26.6642 18.6152 26.6591C18.7428 26.6541 18.8681 26.6233 18.9835 26.5686C19.3284 26.4611 19.671 26.3461 20.0146 26.2345ZM29.907 25.9366C29.9564 25.8027 30.0154 25.6725 30.0837 25.5471C30.0937 25.5316 30.2391 25.5625 30.2529 25.5985C30.2923 25.7011 30.3502 25.8603 30.3031 25.9198C30.19 26.0624 30.0193 26.2607 29.8749 26.2582C29.4183 26.2312 28.9635 26.1792 28.5127 26.1025L28.5128 26.0061L28.8504 25.7915C28.5074 25.6796 28.1343 25.7059 27.8104 25.8649C27.4865 26.0239 27.2375 26.303 27.1162 26.6428C28.0271 26.4131 28.137 26.4634 28.7633 27.4316C28.8142 27.3265 28.838 27.2103 28.8326 27.0936C28.8272 26.9769 28.7927 26.8634 28.7323 26.7635C28.5734 26.5713 28.4046 26.3874 28.2267 26.2128C28.4633 26.286 28.6184 26.3367 28.775 26.3818C29.0745 26.4845 29.3801 26.5684 29.6901 26.6327C29.8127 26.6548 29.9388 26.6477 30.0581 26.6121C30.1775 26.5765 30.2868 26.5133 30.3772 26.4276C30.4676 26.342 30.5366 26.2363 30.5787 26.119C30.6207 26.0018 30.6346 25.8763 30.6192 25.7527C30.6107 25.679 30.5856 25.6082 30.5458 25.5456C30.506 25.483 30.4526 25.4302 30.3895 25.3912C30.3265 25.3521 30.2554 25.3278 30.1816 25.3201C30.1078 25.3124 30.0333 25.3215 29.9635 25.3467C29.86 25.4134 29.7866 25.5179 29.759 25.6378C29.7425 25.7119 29.8403 25.8111 29.907 25.9366H29.907ZM24.7851 1.13978C24.7486 0.889132 24.6848 0.643229 24.5948 0.406474C24.5039 0.225587 24.3518 0.0827395 24.1656 0.00325413C24.0763 -0.0271259 23.8496 0.161684 23.777 0.299834C23.6393 0.542892 23.5673 0.817667 23.5682 1.09703C23.5691 1.37639 23.6429 1.65069 23.7822 1.89283C23.8218 1.96378 23.8759 2.02563 23.9409 2.07438C24.0059 2.12313 24.0804 2.15769 24.1596 2.17583C24.2714 2.18515 24.4471 2.03433 24.5087 1.91146C24.6183 1.66083 24.7107 1.40301 24.7851 1.13978V1.13978ZM18.8519 6.22416C19.0114 6.42708 19.227 6.5787 19.4718 6.66018C19.7167 6.74166 19.9801 6.74943 20.2294 6.6825C20.5403 6.6585 20.8397 6.55467 21.0987 6.38105C21.3577 6.20743 21.5675 5.96991 21.7079 5.69145C21.2089 5.71711 20.7122 5.74761 20.2151 5.76683C19.7194 5.74288 19.2329 5.90612 18.8519 6.22416V6.22416ZM26.5972 5.68716C26.7602 5.99401 27.0042 6.2503 27.3027 6.42821C27.6012 6.60612 27.9427 6.69884 28.2902 6.69629C28.5072 6.73572 28.7308 6.71583 28.9374 6.63874C29.144 6.56165 29.326 6.43021 29.4642 6.25829C29.364 6.13018 29.2374 6.02518 29.0929 5.95047C28.9484 5.87576 28.7896 5.8331 28.6271 5.82538C27.9528 5.76 27.275 5.73113 26.5972 5.6872V5.68716ZM35.1132 27.2117L35.1729 27.1615C35.2561 27.1997 35.3409 27.2348 35.4221 27.2768C35.7213 27.4313 36.0135 27.6012 36.3197 27.7402C36.4436 27.7957 36.5805 27.8156 36.715 27.7976C36.8496 27.7797 36.9764 27.7247 37.0815 27.6387C37.1581 27.5918 37.2225 27.5272 37.2693 27.4505C37.316 27.3737 37.3438 27.2869 37.3503 27.1972C37.3567 27.1076 37.3418 27.0177 37.3066 26.935C37.2714 26.8523 37.217 26.7792 37.1479 26.7217C37.0912 26.6869 37.0281 26.6641 36.9623 26.6546C36.8965 26.6451 36.8295 26.6491 36.7653 26.6664C36.6806 26.6916 36.6007 26.8347 36.5804 26.9375C36.5677 27.0018 36.6695 27.0887 36.7311 27.1823C36.8024 27.0346 36.8441 26.9425 36.8961 26.8566C36.8989 26.8519 37.0296 26.8983 37.0304 26.9232C37.0519 27.0438 37.0387 27.1681 36.9924 27.2815C36.9533 27.331 36.9045 27.3721 36.8489 27.4022C36.7934 27.4323 36.7323 27.4507 36.6693 27.4563C36.2143 27.4169 35.7756 27.2676 35.391 27.0212L35.7585 26.8884C35.6177 26.8043 35.4614 26.7497 35.2989 26.7277C35.1365 26.7057 34.9712 26.7168 34.8132 26.7604C34.6552 26.8041 34.5076 26.8792 34.3794 26.9814C34.2512 27.0836 34.145 27.2107 34.0673 27.355C34.8877 27.1353 35.205 27.6401 35.3981 28.3403C35.5045 28.1516 35.5342 27.9292 35.4811 27.7191C35.4281 27.5091 35.2964 27.3274 35.1132 27.2117V27.2117ZM12.8768 27.003L12.8996 27.0867C12.5084 27.2284 12.1097 27.3484 11.7053 27.446C11.5796 27.4708 11.3998 27.3119 11.2745 27.2029C11.2258 27.1606 11.2405 27.0189 11.2634 26.9323C11.2741 26.8918 11.4164 26.8413 11.4245 26.852C11.4729 26.9272 11.5154 27.0061 11.5517 27.0879C11.5685 27.1097 11.5885 27.129 11.611 27.1451C11.6416 27.1234 11.6761 27.1121 11.6867 27.0895C11.7127 27.0524 11.7297 27.0097 11.7364 26.9648C11.7431 26.9199 11.7392 26.8741 11.7251 26.831C11.711 26.7879 11.6871 26.7487 11.6552 26.7164C11.6233 26.6842 11.5843 26.6598 11.5414 26.6452C11.4895 26.6282 11.4348 26.6219 11.3804 26.6265C11.326 26.6311 11.2731 26.6466 11.2249 26.6721C11.1766 26.6976 11.134 26.7326 11.0995 26.7749C11.0651 26.8172 11.0395 26.8661 11.0243 26.9185C10.9802 27.0248 10.9686 27.1418 10.9908 27.2547C11.0131 27.3676 11.0682 27.4714 11.1493 27.5531C11.2446 27.6635 11.371 27.7424 11.5119 27.7797C11.6529 27.8169 11.8018 27.8107 11.9391 27.7618C12.1698 27.6726 12.3933 27.566 12.6079 27.443C12.7869 27.3519 12.9613 27.2519 13.1377 27.1558C12.9315 27.5193 12.5966 27.8227 12.9364 28.3104C13.1073 27.6039 13.4581 27.1659 14.2584 27.3424C14.1802 27.1996 14.0738 27.0742 13.9455 26.9739C13.8173 26.8735 13.67 26.8003 13.5126 26.7588C13.3551 26.7172 13.1909 26.7081 13.0298 26.732C12.8688 26.756 12.7143 26.8124 12.5758 26.898L12.8768 27.003ZM30.7083 26.6923C31.525 26.5593 31.8472 27.0291 32.0397 27.6986C32.3044 27.2214 32.0829 26.9138 31.8166 26.5942C31.9461 26.6232 32.07 26.6728 32.1837 26.7412C32.5332 27.0238 32.9732 27.1705 33.4224 27.1542C33.5602 27.1304 33.6872 27.064 33.7853 26.9643C33.8835 26.8646 33.9479 26.7367 33.9695 26.5985C33.9905 26.4793 33.9701 26.3565 33.9116 26.2506C33.8531 26.1447 33.7601 26.062 33.6481 26.0162C33.4444 25.9085 33.3209 26.0601 33.2399 26.204C33.168 26.3318 33.1722 26.4796 33.3558 26.4972C33.4058 26.4075 33.4644 26.3228 33.5305 26.2442C33.5485 26.2261 33.6733 26.2657 33.6778 26.2914C33.6956 26.3919 33.7273 26.5372 33.6755 26.5927C33.5703 26.7055 33.389 26.8665 33.2836 26.8387C32.8821 26.717 32.4875 26.5736 32.1017 26.4091L32.1107 26.3507L32.385 26.2647C32.1026 26.114 31.774 26.0742 31.4638 26.1533C31.1535 26.2324 30.8841 26.4247 30.7083 26.6923V26.6923ZM16.2269 26.354L16.2503 26.4601C15.9014 26.5852 15.556 26.7223 15.2014 26.8285C15.1404 26.848 15.0762 26.855 15.0125 26.8491C14.9488 26.8431 14.8869 26.8242 14.8307 26.7937C14.7219 26.6883 14.6426 26.5563 14.6006 26.4108C14.5876 26.3765 14.7004 26.2944 14.7553 26.2342L14.9863 26.4945C15.1473 26.4105 15.1125 26.2656 15.0247 26.1404C14.9379 26.0166 14.8221 25.9225 14.647 26.0287C14.5428 26.0779 14.4567 26.1584 14.4007 26.259C14.3447 26.3596 14.3215 26.4752 14.3345 26.5896C14.3602 26.726 14.4251 26.8519 14.5212 26.952C14.6173 27.0521 14.7405 27.122 14.8757 27.1532C15.3447 27.1752 15.8049 27.021 16.166 26.7209C16.2694 26.662 16.382 26.6194 16.4905 26.5693C16.111 27.1457 16.074 27.313 16.2577 27.5887C16.404 27.3317 16.5722 27.088 16.7607 26.8602C16.8806 26.7517 17.0321 26.6842 17.193 26.6676C17.3539 26.6511 17.5159 26.6862 17.6555 26.768C17.2911 26.139 16.2913 25.8768 15.9497 26.2853L16.2269 26.354ZM19.2027 22.8834C19.4777 22.9271 19.7558 22.9479 20.0342 22.9457C20.3575 22.9169 20.4814 22.6285 20.267 22.4249C20.2045 22.3667 20.1567 22.2944 20.1276 22.2141C20.0985 22.1338 20.0889 22.0477 20.0995 21.963C20.1019 21.8567 20.0671 21.753 20.001 21.6698C19.9349 21.5866 19.8418 21.5292 19.7378 21.5075C19.5186 21.4457 19.2737 21.4268 19.1436 21.6116C19.2784 21.7122 19.4501 21.7764 19.4918 21.8889C19.5284 22.0351 19.5061 22.1899 19.4298 22.3199C19.36 22.4352 19.2599 22.5293 19.1405 22.5921C19.0211 22.6548 18.8869 22.6838 18.7523 22.6759C18.5336 22.6757 18.3149 22.6482 18.0414 22.629C18.4098 22.9337 18.8654 23.1136 19.3426 23.143L19.2027 22.8834ZM28.9842 23.1569C29.4687 23.1116 29.9277 22.9188 30.2992 22.6044C30.1773 22.6359 30.0525 22.6543 29.9267 22.6594C29.6561 22.6433 29.3877 22.6002 29.1256 22.5306C29.0695 22.5166 29.0167 22.4916 28.9703 22.4569C28.924 22.4223 28.885 22.3787 28.8557 22.3288C28.8264 22.2789 28.8074 22.2237 28.7997 22.1663C28.792 22.109 28.7959 22.0506 28.811 21.9948C28.8539 21.844 29.0188 21.7279 29.1321 21.5924C29.0452 21.529 28.9437 21.4888 28.837 21.4756C28.7303 21.4623 28.622 21.4764 28.5222 21.5166C28.4263 21.5695 28.3463 21.6472 28.2907 21.7417C28.2351 21.8361 28.2059 21.9437 28.2061 22.0533C28.199 22.1701 28.1548 22.2816 28.0801 22.3716C27.8693 22.6136 27.9178 22.8769 28.2326 22.9222C28.4872 22.9328 28.7422 22.9162 28.9932 22.8726C29.03 22.8697 29.0671 22.8722 29.1169 22.8722L28.9842 23.1569ZM23.58 9.51572C23.5801 9.85931 23.8737 10.2505 24.1403 10.2623C24.4197 10.2747 24.7437 9.87238 24.7408 9.51657C24.7378 9.14692 24.441 8.76157 24.1582 8.7601C23.8786 8.75863 23.5799 9.14895 23.58 9.51572ZM33.0427 21.6949C32.9539 22.5322 33.7474 23.3945 34.4338 23.1588C34.4229 22.8258 34.1912 22.5241 33.7429 22.2215C33.5016 22.0586 33.2763 21.8718 33.0427 21.6949H33.0427ZM15.6637 21.6341C15.7692 21.833 15.9223 22.0028 16.1092 22.1284C16.2962 22.2539 16.5112 22.3314 16.7353 22.354C16.9999 22.3776 17.2665 22.3612 17.5262 22.3052C17.5905 22.2962 17.6664 22.1943 17.6865 22.1212C17.6964 22.0856 17.5985 21.9871 17.5352 21.97C17.1842 21.8749 16.8311 21.7831 16.4739 21.716C16.2223 21.6688 15.963 21.6627 15.6637 21.634L15.6637 21.6341ZM30.5674 22.1273C30.731 22.2387 30.9159 22.3148 31.1105 22.3509C31.305 22.3869 31.505 22.382 31.6976 22.3366C31.8902 22.2912 32.0712 22.2061 32.2291 22.0869C32.387 21.9677 32.5184 21.8169 32.6149 21.6441C32.2662 21.6725 31.9123 21.6992 31.5588 21.7307C31.1928 21.746 30.8431 21.8859 30.5675 22.1273H30.5674ZM13.8439 23.1692C14.0359 23.1911 14.2305 23.1688 14.4126 23.1039C14.5947 23.039 14.7595 22.9333 14.8944 22.7949C15.0293 22.6564 15.1307 22.4889 15.1908 22.3052C15.2509 22.1215 15.2682 21.9264 15.2412 21.735C14.9801 21.9259 14.7031 22.1252 14.4296 22.3292C14.2815 22.4238 14.1536 22.5467 14.0531 22.6908C13.9526 22.8349 13.8815 22.9975 13.8439 23.1692V23.1692ZM32.4401 22.3262C32.2848 22.4395 32.1698 22.5994 32.1117 22.7827C32.0536 22.9659 32.0555 23.1629 32.1172 23.345C32.1923 23.5853 32.3578 23.6193 32.5614 23.5437C32.8169 23.4488 33.1676 22.7829 32.9361 22.4671L32.5483 22.9567L32.4726 22.9114L32.4401 22.3262ZM15.3509 22.4344C15.3038 22.6148 15.3053 22.8045 15.3552 22.9841C15.4051 23.1638 15.5017 23.3271 15.6351 23.4574C15.662 23.4939 15.6964 23.5242 15.7361 23.5463C15.7757 23.5684 15.8197 23.5817 15.8649 23.5854C15.9101 23.5891 15.9556 23.583 15.9983 23.5676C16.041 23.5522 16.0799 23.5278 16.1124 23.4961C16.2319 23.3149 16.278 23.0951 16.2414 22.8812C16.2047 22.6673 16.0881 22.4754 15.9151 22.3443L15.8413 22.9346L15.7577 22.9556L15.3509 22.4344ZM22.1436 21.7694C21.9392 21.8047 21.7569 21.9189 21.6359 22.0875C21.515 22.256 21.4651 22.4653 21.4971 22.6702C21.5202 22.7435 21.571 22.8049 21.6386 22.8414C21.7435 22.871 21.8539 22.8758 21.961 22.8553C22.068 22.8348 22.1689 22.7897 22.2555 22.7235C22.3421 22.6573 22.4121 22.5718 22.4599 22.4738C22.5077 22.3758 22.532 22.2681 22.5309 22.1591L22.0343 22.3767L21.9675 22.3236L22.1436 21.7694ZM26.3679 22.316L26.3014 22.3897L25.7601 22.1381C25.7624 22.3317 25.8403 22.5167 25.9772 22.6536C26.1141 22.7905 26.2992 22.8684 26.4928 22.8706C26.5874 22.8686 26.7589 22.7988 26.7609 22.7541C26.786 22.5435 26.765 22.3299 26.6995 22.1281C26.662 22.0188 26.5892 21.925 26.4926 21.8615C26.396 21.798 26.281 21.7684 26.1657 21.7774L26.3679 22.316ZM35.1354 23.239L35.5271 23.691L34.9188 23.723C34.9944 23.8605 35.1119 23.9702 35.2543 24.0361C35.3967 24.1019 35.5564 24.1205 35.71 24.0892C35.763 24.0897 35.8152 24.0769 35.8618 24.0519C35.9085 24.0269 35.948 23.9906 35.9769 23.9462C36.0058 23.9019 36.023 23.851 36.0269 23.7982C36.0309 23.7454 36.0215 23.6925 35.9995 23.6444C35.9308 23.4822 35.8045 23.3512 35.6451 23.2764C35.4856 23.2015 35.3041 23.1882 35.1354 23.239V23.239ZM13.187 23.2381C13.0956 23.2092 12.9993 23.1993 12.904 23.2091C12.8087 23.219 12.7164 23.2482 12.6329 23.2952C12.5493 23.3421 12.4763 23.4057 12.4184 23.482C12.3604 23.5583 12.3187 23.6457 12.2959 23.7387C12.2997 23.7984 12.3172 23.8564 12.3469 23.9082C12.3766 23.9601 12.4177 24.0045 12.4672 24.0381C12.6329 24.1113 12.8202 24.1192 12.9914 24.0602C13.1627 24.0012 13.3054 23.8797 13.3908 23.7199L12.782 23.6827L13.187 23.2381ZM26.7138 19.0005C26.919 19.3113 27.0693 19.5662 27.2503 19.797C27.2868 19.8375 27.3326 19.8685 27.3838 19.8873C27.435 19.9062 27.4899 19.9123 27.544 19.9052C27.681 19.828 27.8066 19.7322 27.9172 19.6203C27.7947 19.4774 27.6989 19.2779 27.5435 19.2048C27.2744 19.1094 26.9964 19.041 26.7138 19.0005H26.7138ZM20.8602 19.2048C20.7048 19.2779 20.609 19.4774 20.4865 19.6203C20.5971 19.7322 20.7227 19.828 20.8597 19.9052C20.9138 19.9123 20.9688 19.9062 21.0199 19.8873C21.0711 19.8685 21.1169 19.8375 21.1534 19.797C21.3344 19.5662 21.4847 19.3113 21.6899 19.0005C21.4072 19.041 21.1293 19.1094 20.8602 19.2048H20.8602ZM29.951 27.925C29.992 27.7806 29.9944 27.628 29.9579 27.4825C29.9214 27.3369 29.8474 27.2035 29.7432 27.0955C29.6706 26.9763 29.5649 26.8808 29.439 26.8207C29.313 26.7606 29.1723 26.7385 29.034 26.7571C29.432 27.0612 29.3604 27.7227 29.951 27.925ZM19.3262 26.7141C18.6641 26.7563 18.1622 27.4536 18.4086 27.9156C18.95 27.7091 18.8995 27.0688 19.3262 26.7141ZM12.5451 27.7282C11.9601 27.9468 11.6851 28.5629 11.9777 28.9337C12.0201 28.8941 12.0796 28.8631 12.0999 28.8155C12.246 28.4716 12.3841 28.1244 12.5451 27.7282ZM15.3211 28.3419C15.7277 28.0409 15.6532 27.5304 15.8723 27.14C15.7476 27.1682 15.631 27.2248 15.5317 27.3054C15.4323 27.386 15.3529 27.4884 15.2996 27.6047C15.2463 27.7209 15.2205 27.8479 15.2242 27.9758C15.2279 28.1037 15.2611 28.2289 15.3211 28.3419H15.3211ZM35.7756 27.7378C36.0371 28.1365 35.9269 28.6632 36.3633 28.9341C36.4175 28.8183 36.4451 28.6917 36.4439 28.5638C36.4427 28.4359 36.4128 28.3098 36.3564 28.195C36.3 28.0802 36.2185 27.9795 36.118 27.9004C36.0175 27.8212 35.9005 27.7657 35.7757 27.7378H35.7756ZM32.5006 27.1667C32.6768 28.0236 32.7759 28.2281 33.0418 28.3006C33.0837 28.1908 33.1029 28.0737 33.0982 27.9563C33.0934 27.8389 33.0649 27.7237 33.0143 27.6177C32.9637 27.5117 32.8921 27.417 32.8038 27.3395C32.7155 27.262 32.6124 27.2032 32.5007 27.1667H32.5006ZM36.9813 14.8277C36.9409 14.9144 36.9326 15.0126 36.9577 15.1049C36.9828 15.1972 37.0398 15.2776 37.1186 15.3318C37.1986 15.3846 37.2914 15.4147 37.3872 15.4187C37.4829 15.4228 37.578 15.4008 37.6621 15.3549C37.7454 15.3076 37.8182 15.2438 37.8761 15.1675C37.934 15.0912 37.9758 15.0039 37.999 14.911C38.0442 14.7243 38.039 14.5289 37.9841 14.3448C37.9227 14.1868 37.8281 14.0438 37.7065 13.9256C37.585 13.8075 37.4394 13.7169 37.2797 13.66C36.9559 13.5597 36.6072 13.5769 36.2949 13.7086C36.0479 13.8383 35.8428 14.0353 35.7034 14.2768C35.5639 14.5183 35.4957 14.7944 35.5069 15.0731C35.51 15.6202 35.6281 16.1605 35.8534 16.6591C36.0785 17.1561 36.2534 17.6744 36.3756 18.2061C36.4632 18.5681 36.4122 18.9498 36.2326 19.2761C36.0491 19.4935 35.85 19.6972 35.6369 19.8856C35.5093 20.0257 35.4159 20.1934 35.364 20.3757C35.3121 20.5579 35.3031 20.7497 35.3377 20.936C35.3769 21.119 35.4739 21.2846 35.6143 21.4083C35.7548 21.5319 35.9313 21.6072 36.1178 21.6228C36.2339 21.6308 36.6454 21.5979 36.6338 21.4366C36.6294 21.3757 36.4152 21.2163 36.3704 21.1627C36.0804 20.8147 35.9266 20.4635 36.2372 20.0524C36.4538 19.7657 36.7546 19.5477 36.9517 19.2472C37.0935 18.9973 37.1823 18.7208 37.2126 18.4351C37.2428 18.1493 37.2139 17.8604 37.1276 17.5863C36.9521 17.0403 36.7371 16.5079 36.4844 15.9931C36.372 15.7544 36.3009 15.4983 36.2741 15.2358C36.2615 15.1045 36.2761 14.9719 36.3171 14.8465C36.3582 14.721 36.4246 14.6054 36.5124 14.5068C36.6283 14.3903 36.7834 14.321 36.9475 14.3123C37.1117 14.3036 37.2732 14.3561 37.4008 14.4597C37.4461 14.501 37.4809 14.5525 37.5023 14.61C37.5238 14.6674 37.5312 14.7291 37.5241 14.79C37.515 14.8507 37.4871 14.907 37.4441 14.9508C37.4012 14.9946 37.3455 15.0237 37.2851 15.0339C37.1207 15.0534 37.0726 14.9079 36.9857 14.8213L36.9813 14.8277ZM11.1995 14.8214C11.1126 14.9079 11.0645 15.0534 10.9002 15.034C10.8397 15.0237 10.784 14.9946 10.7411 14.9508C10.6982 14.907 10.6702 14.8508 10.6612 14.7901C10.654 14.7292 10.6615 14.6675 10.6829 14.6101C10.7043 14.5526 10.7392 14.5011 10.7845 14.4598C10.9121 14.3562 11.0736 14.3036 11.2377 14.3123C11.4019 14.321 11.5569 14.3904 11.6729 14.5069C11.7606 14.6055 11.8271 14.7211 11.8681 14.8465C11.9091 14.972 11.9238 15.1045 11.9112 15.2359C11.8844 15.4984 11.8132 15.7544 11.7009 15.9932C11.4481 16.5079 11.2332 17.0404 11.0577 17.5863C10.9714 17.8604 10.9424 18.1494 10.9727 18.4351C11.0029 18.7209 11.0917 18.9974 11.2336 19.2473C11.4306 19.5478 11.7314 19.7658 11.948 20.0525C12.2587 20.4636 12.1049 20.8148 11.8148 21.1627C11.7701 21.2164 11.5559 21.3757 11.5515 21.4366C11.5399 21.598 11.9514 21.6309 12.0675 21.6229C12.254 21.6072 12.4305 21.532 12.571 21.4083C12.7114 21.2847 12.8084 21.1191 12.8475 20.9361C12.8822 20.7498 12.8732 20.558 12.8213 20.3758C12.7694 20.1935 12.676 20.0258 12.5484 19.8857C12.3353 19.6972 12.1362 19.4935 11.9527 19.2762C11.7731 18.9499 11.7221 18.5682 11.8097 18.2062C11.9319 17.6744 12.1068 17.1562 12.3319 16.6592C12.5572 16.1606 12.6753 15.6203 12.6784 15.0732C12.6895 14.7945 12.6214 14.5184 12.4819 14.2769C12.3424 14.0354 12.1373 13.8383 11.8904 13.7087C11.5781 13.577 11.2293 13.5597 10.9056 13.6601C10.7459 13.7169 10.6003 13.8075 10.4788 13.9257C10.3572 14.0439 10.2626 14.1869 10.2012 14.3449C10.1463 14.529 10.1411 14.7244 10.1863 14.9111C10.2095 15.004 10.2513 15.0913 10.3092 15.1676C10.367 15.2439 10.4398 15.3076 10.523 15.355C10.6072 15.4008 10.7023 15.4229 10.798 15.4188C10.8938 15.4147 10.9866 15.3847 11.0666 15.3319C11.1454 15.2777 11.2024 15.1973 11.2275 15.105C11.2526 15.0127 11.2443 14.9145 11.2039 14.8278L11.1995 14.8214Z" fill="#0000BC"/>
<path d="M12.2008 28.9913C12.2008 28.9913 16.3477 27.6185 24.8081 27.6185C33.2685 27.6185 36.2816 29 36.2816 29" stroke="#0000BC" stroke-width="0.75" stroke-miterlimit="10" stroke-linecap="round"/>
</svg>
